<svg width="8" height="10" viewBox="0 0 8 10" fill="none" xmlns="http://www.w3.org/2000/svg">
<path fill-rule="evenodd" clip-rule="evenodd" d="M2.57868 5.25002C1.65534 5.25002 0.908386 4.50221 0.908386 3.57965C0.908386 2.65757 1.65534 1.90911 2.57868 1.90911C3.50169 1.90911 4.2493 2.65757 4.2493 3.57965C4.2493 4.50221 3.50169 5.25002 2.57868 5.25002M4.48396 0C2.54229 0 1.00002 1.63678 1.00002 3.65569C1.00002 6.40791 3.9508 9.25191 3.9508 9.25191C4.34779 9.62783 4.59439 9.65847 5.01648 9.25191C5.01648 9.25191 8.00002 6.40791 8.00002 3.65569C8.00002 1.63678 6.42546 0 4.48396 0" fill="#F55A5A"/>
</svg>
